<svg width="1440" height="270" viewBox="0 0 1440 270" fill="none" xmlns="http://www.w3.org/2000/svg">
<path d="M8.39999 0H-23.64V270H47.64V131.76L118.56 195.84L189.12 131.4V270H260.4V0H228.36L118.56 100.08L8.39999 0Z" fill="#1A1A1A"/>
<path d="M314.915 270H482.675V212.04H385.835V162.36H471.515V102.6H385.835V58.68H482.675V0H314.915V270Z" fill="#1A1A1A"/>
<path d="M771.907 270L714.667 172.08C734.107 154.08 746.707 128.16 746.707 99.36C746.707 44.64 702.067 0 647.347 0H533.587V270H604.507V198.36H648.427L690.187 270H771.907ZM604.507 59.76H648.427C670.027 59.76 687.307 77.04 687.307 98.64C687.307 120.24 670.027 137.16 648.427 137.16H604.507V59.76Z" fill="#1A1A1A"/>
<path d="M866.702 270L882.902 234.72H993.422L1009.98 270H1080.9L953.822 0H921.782L795.782 270H866.702ZM938.342 115.56L965.702 174.96H910.622L938.342 115.56Z" fill="#1A1A1A"/>
<path d="M1278.47 0H1207.55V167.4C1207.55 187.2 1193.87 198.72 1175.51 198.72C1161.47 198.72 1153.19 195.12 1147.79 189.72C1122.23 216 1104.95 233.28 1096.31 241.92C1121.15 265.68 1163.99 270 1172.99 270C1225.55 270 1277.39 240.12 1278.47 177.84V0Z" fill="#1A1A1A"/>
<path d="M1403.61 0H1332.33V163.44C1332.33 222.84 1379.49 270 1438.89 270C1497.57 270 1545.45 222.84 1545.45 163.44V0H1474.17V162.36C1474.17 181.8 1458.33 197.64 1438.89 197.64C1419.45 197.64 1403.61 181.8 1403.61 162.36V0Z" fill="#1A1A1A"/>
</svg>
